<?xml version="1.0" encoding="UTF-8"?>
<svg xmlns="http://www.w3.org/2000/svg" xmlns:xlink="http://www.w3.org/1999/xlink" width="600px" height="372px" viewBox="0 0 602 372" version="1.1">
<g id="surface1">
<path style=" stroke:none;fill-rule:nonzero;fill:rgb(0%,0%,0%);fill-opacity:1;" d="M 0 186.402344 L 0 372.800781 L 600.398438 372.800781 L 600.398438 0 L 0 0 Z M 139.292969 22.046875 C 147.296875 25.65625 158.105469 27.660156 162.910156 26.054688 C 170.914062 24.050781 171.714844 25.65625 172.914062 54.117188 C 173.714844 70.550781 172.914062 84.179688 171.714844 84.179688 C 170.511719 84.179688 165.308594 74.960938 160.105469 63.738281 C 142.894531 27.660156 119.277344 16.035156 92.0625 30.066406 C 84.054688 34.074219 78.851562 41.289062 75.648438 51.710938 C 68.445312 76.566406 78.453125 89.792969 121.28125 112.242188 C 140.492188 122.664062 160.105469 134.691406 165.308594 139.5 C 170.511719 144.308594 176.117188 148.320312 177.71875 148.320312 C 180.121094 148.320312 202.132812 133.488281 213.742188 123.867188 C 215.34375 122.261719 211.339844 112.640625 204.136719 102.21875 C 186.925781 76.964844 184.121094 54.117188 196.53125 38.484375 C 220.144531 8.820312 282.988281 8.417969 302.601562 38.082031 C 317.410156 60.929688 307.804688 82.175781 273.382812 102.621094 L 255.769531 112.640625 L 287.792969 147.515625 C 357.4375 223.679688 383.453125 244.527344 408.269531 244.527344 C 419.078125 244.527344 439.089844 224.882812 442.695312 210.851562 C 447.097656 192.011719 428.683594 171.570312 387.859375 150.324219 C 344.230469 127.472656 330.621094 111.039062 331.019531 79.773438 C 331.820312 30.464844 376.648438 3.609375 428.285156 22.046875 C 441.492188 26.457031 446.695312 26.859375 451.101562 23.652344 C 453.902344 20.84375 457.503906 19.640625 458.703125 20.84375 C 459.90625 22.046875 460.304688 38.082031 459.503906 56.523438 L 458.304688 90.195312 L 444.296875 62.132812 C 433.085938 39.683594 427.082031 32.46875 415.074219 26.457031 C 401.464844 20.042969 398.265625 19.640625 385.054688 24.851562 C 357.835938 34.875 351.035156 66.945312 371.046875 88.992188 C 375.050781 93.402344 392.660156 104.222656 410.273438 113.042969 C 463.109375 139.5 480.320312 163.550781 474.714844 202.433594 C 468.710938 241.71875 441.09375 262.164062 394.261719 262.164062 C 349.03125 261.761719 337.824219 254.546875 278.585938 188.804688 C 250.167969 157.941406 224.949219 132.285156 222.148438 132.285156 C 210.140625 132.285156 196.53125 156.335938 191.726562 186.402344 C 184.921875 225.285156 174.917969 243.324219 152.5 255.347656 C 131.6875 266.171875 110.074219 266.972656 80.054688 258.15625 C 68.445312 254.546875 54.835938 252.542969 49.632812 253.746094 C 40.828125 255.347656 40.425781 254.148438 39.226562 221.675781 C 38.425781 203.636719 38.824219 188.40625 40.027344 188.40625 C 41.226562 188.40625 48.03125 200.429688 55.636719 214.863281 C 72.449219 247.332031 86.859375 257.753906 111.273438 255.347656 C 138.890625 252.542969 155.703125 230.09375 150.5 202.433594 C 146.496094 182.792969 131.6875 167.160156 105.269531 154.332031 C 56.835938 131.484375 41.628906 112.242188 45.230469 79.371094 C 51.234375 30.066406 94.460938 3.609375 139.292969 22.046875 Z M 425.484375 199.628906 C 439.492188 212.054688 428.285156 236.507812 408.269531 236.507812 C 387.859375 236.507812 377.050781 215.261719 389.457031 199.628906 C 398.664062 187.601562 411.472656 187.601562 425.484375 199.628906 Z M 224.148438 258.554688 C 246.5625 270.179688 265.777344 266.171875 296.996094 243.722656 C 303 239.714844 305.402344 239.714844 311.007812 245.726562 C 317.011719 251.742188 317.011719 253.34375 312.207031 258.554688 C 306.203125 264.167969 264.976562 276.59375 251.367188 276.59375 C 246.164062 276.59375 244.164062 279.800781 244.164062 287.015625 C 244.164062 292.628906 242.160156 300.648438 240.160156 305.054688 C 236.957031 310.667969 237.359375 315.078125 242.160156 321.492188 C 250.167969 333.117188 250.167969 352.757812 242.160156 352.757812 C 238.160156 352.757812 236.15625 348.75 236.15625 341.535156 C 236.15625 328.304688 229.753906 320.691406 218.144531 320.691406 C 210.941406 320.691406 210.140625 322.695312 211.339844 336.722656 C 212.542969 349.550781 211.742188 352.757812 206.539062 352.757812 C 201.332031 352.757812 200.132812 347.148438 200.132812 316.679688 C 200.132812 295.433594 201.734375 280.601562 204.136719 280.601562 C 206.539062 280.601562 208.136719 286.214844 208.136719 292.628906 C 208.136719 315.476562 229.753906 311.871094 232.953125 288.621094 C 234.554688 277.398438 233.753906 276.59375 221.347656 276.59375 C 208.9375 276.59375 176.117188 265.773438 176.117188 261.761719 C 176.117188 260.558594 180.121094 252.542969 184.921875 244.125 L 193.730469 228.089844 L 203.335938 240.515625 C 208.539062 247.332031 218.144531 255.347656 224.148438 258.554688 Z M 468.3125 283.007812 C 472.714844 287.015625 474.316406 297.441406 474.316406 318.683594 C 474.316406 356.367188 467.109375 358.773438 464.308594 321.890625 C 461.90625 291.425781 459.105469 284.613281 448.296875 284.613281 C 437.089844 284.613281 434.289062 291.828125 434.289062 321.492188 C 434.289062 336.324219 432.6875 349.152344 430.285156 349.550781 C 425.882812 350.753906 422.679688 303.851562 426.285156 289.421875 C 430.285156 272.988281 453.902344 269.378906 468.3125 283.007812 Z M 540.757812 276.59375 C 550.765625 282.207031 551.167969 294.632812 541.558594 290.625 C 526.351562 283.808594 509.539062 283.808594 503.132812 290.625 C 478.316406 315.078125 507.9375 354.761719 535.554688 333.917969 C 551.167969 322.292969 550.765625 317.484375 533.554688 315.878906 C 511.941406 314.277344 516.742188 306.660156 539.558594 306.660156 C 555.96875 306.660156 558.371094 307.863281 559.570312 315.878906 C 560.371094 321.492188 556.769531 329.109375 548.765625 336.722656 C 539.558594 346.34375 533.554688 348.75 520.347656 348.75 C 497.128906 348.75 484.320312 335.523438 484.320312 311.070312 C 484.320312 296.238281 486.324219 291.828125 496.730469 283.007812 C 509.539062 272.183594 527.148438 269.378906 540.757812 276.59375 Z M 185.722656 279 C 196.128906 283.007812 192.929688 288.621094 180.121094 288.621094 C 163.707031 288.621094 152.101562 301.046875 152.101562 318.285156 C 152.101562 334.320312 163.308594 344.742188 180.921875 344.742188 C 194.128906 344.742188 195.730469 351.15625 183.722656 354.761719 C 164.910156 360.777344 140.09375 339.128906 140.09375 317.082031 C 140.09375 303.050781 148.898438 289.421875 161.707031 283.007812 C 175.714844 275.792969 177.316406 275.792969 185.722656 279 Z M 296.996094 283.410156 C 305.402344 292.628906 308.605469 349.152344 301.398438 351.554688 C 297.796875 352.757812 296.195312 348.75 296.195312 339.128906 C 296.195312 325.5 295.394531 324.699219 282.585938 324.699219 C 269.777344 324.699219 268.578125 325.902344 267.378906 337.527344 C 266.578125 344.339844 263.773438 350.753906 261.375 351.957031 C 257.371094 353.160156 256.171875 345.140625 256.171875 321.089844 C 256.171875 292.628906 256.972656 288.21875 264.976562 283.007812 C 276.582031 274.589844 289.390625 274.992188 296.996094 283.410156 Z M 372.648438 280.601562 C 376.648438 283.007812 380.253906 287.417969 380.253906 290.625 C 380.253906 298.242188 378.25 298.242188 366.644531 290.625 C 355.035156 282.609375 338.226562 286.214844 330.21875 297.839844 C 310.605469 325.902344 349.03125 355.964844 373.449219 331.914062 L 382.253906 322.695312 L 367.042969 320.691406 C 344.628906 317.882812 347.03125 310.667969 371.445312 309.464844 C 388.257812 308.664062 392.261719 309.464844 392.261719 314.675781 C 392.261719 324.699219 381.054688 343.941406 372.648438 348.75 C 351.433594 359.972656 319.414062 344.742188 315.007812 321.890625 C 312.609375 308.261719 320.613281 287.015625 331.019531 281.003906 C 340.226562 275.792969 362.640625 275.390625 372.648438 280.601562 Z M 412.273438 315.078125 C 412.273438 343.941406 411.074219 353.160156 407.472656 351.957031 C 403.867188 350.753906 401.867188 338.328125 401.066406 313.472656 C 400.265625 282.609375 401.066406 276.59375 406.269531 276.59375 C 411.074219 276.59375 412.273438 283.007812 412.273438 315.078125 Z M 64.84375 287.417969 C 82.453125 303.453125 68.847656 332.714844 43.230469 332.714844 C 33.222656 332.714844 32.019531 334.320312 32.019531 345.140625 C 32.019531 353.160156 30.421875 356.765625 27.21875 355.964844 C 23.617188 354.761719 21.613281 343.941406 20.8125 325.5 C 19.613281 300.648438 20.8125 296.238281 28.417969 289.023438 C 39.226562 279 54.835938 278.199219 64.84375 287.417969 Z M 125.683594 289.421875 C 133.6875 301.046875 134.890625 358.371094 127.285156 355.964844 C 124.484375 354.761719 121.679688 348.347656 120.878906 341.535156 C 119.679688 329.910156 118.480469 328.707031 105.671875 328.707031 C 92.863281 328.707031 92.0625 329.507812 92.0625 343.136719 C 92.0625 352.757812 90.460938 356.765625 87.257812 355.964844 C 79.253906 353.160156 78.050781 301.847656 86.058594 290.222656 C 94.460938 277.398438 116.878906 276.996094 125.683594 289.421875 Z M 125.683594 289.421875 "/>
<path style=" stroke:none;fill-rule:nonzero;fill:rgb(0%,0%,0%);fill-opacity:1;" d="M 229.753906 26.054688 C 217.34375 31.265625 212.140625 38.882812 212.140625 52.113281 C 212.140625 62.535156 244.164062 104.222656 252.566406 104.222656 C 264.574219 104.222656 278.183594 80.574219 278.183594 59.328125 C 278.183594 29.664062 256.171875 14.429688 229.753906 26.054688 Z M 229.753906 26.054688 "/>
<path style=" stroke:none;fill-rule:nonzero;fill:rgb(0%,0%,0%);fill-opacity:1;" d="M 268.179688 294.632812 C 260.171875 304.65625 264.976562 313.472656 279.386719 314.675781 C 294.597656 315.878906 299 309.464844 292.195312 297.039062 C 287.390625 287.417969 275.382812 286.214844 268.179688 294.632812 Z M 268.179688 294.632812 "/>
<path style=" stroke:none;fill-rule:nonzero;fill:rgb(0%,0%,0%);fill-opacity:1;" d="M 34.824219 295.433594 C 33.222656 296.636719 32.019531 303.050781 32.019531 309.464844 C 32.019531 319.085938 33.621094 320.691406 44.027344 320.691406 C 57.636719 320.691406 65.242188 310.667969 59.640625 299.84375 C 56.039062 292.628906 40.027344 289.824219 34.824219 295.433594 Z M 34.824219 295.433594 "/>
<path style=" stroke:none;fill-rule:nonzero;fill:rgb(0%,0%,0%);fill-opacity:1;" d="M 98.867188 293.03125 C 95.261719 295.433594 92.0625 301.449219 92.0625 306.660156 C 92.0625 315.476562 94.0625 316.679688 106.070312 316.679688 C 118.480469 316.679688 120.078125 315.476562 120.078125 306.660156 C 120.078125 295.035156 108.871094 287.820312 98.867188 293.03125 Z M 98.867188 293.03125 "/>
</g>
</svg>
