<?xml version="1.0" encoding="UTF-8"?>
<svg xmlns="http://www.w3.org/2000/svg" xmlns:xlink="http://www.w3.org/1999/xlink" width="226px" height="140px" viewBox="0 0 225 140" version="1.1">
<g id="surface1">
<path style=" stroke:none;fill-rule:nonzero;fill:rgb(0%,0%,0%);fill-opacity:1;" d="M 0 70.152344 L 0 140.066406 L 224.402344 140.066406 L 224.402344 0.234375 L 0 0.234375 Z M 52.0625 8.503906 C 55.054688 9.855469 59.09375 10.609375 60.886719 10.003906 C 63.878906 9.253906 64.179688 9.855469 64.628906 20.53125 C 64.925781 26.695312 64.628906 31.808594 64.179688 31.808594 C 63.730469 31.808594 61.785156 28.351562 59.839844 24.140625 C 53.40625 10.609375 44.582031 6.246094 34.410156 11.511719 C 31.414062 13.011719 29.472656 15.71875 28.273438 19.628906 C 25.582031 28.953125 29.320312 33.914062 45.328125 42.332031 C 52.507812 46.242188 59.839844 50.753906 61.785156 52.558594 C 63.730469 54.363281 65.824219 55.867188 66.421875 55.867188 C 67.320312 55.867188 75.546875 50.304688 79.886719 46.695312 C 80.484375 46.09375 78.988281 42.484375 76.296875 38.574219 C 69.863281 29.101562 68.816406 20.53125 73.453125 14.667969 C 82.28125 3.539062 105.769531 3.390625 113.097656 14.515625 C 118.632812 23.085938 115.042969 31.054688 102.179688 38.726562 L 95.59375 42.484375 L 107.5625 55.566406 C 133.59375 84.132812 143.316406 91.953125 152.59375 91.953125 C 156.632812 91.953125 164.113281 84.585938 165.460938 79.320312 C 167.105469 72.253906 160.222656 64.585938 144.964844 56.617188 C 128.65625 48.046875 123.570312 41.882812 123.71875 30.15625 C 124.019531 11.660156 140.773438 1.585938 160.074219 8.503906 C 165.007812 10.15625 166.953125 10.308594 168.601562 9.105469 C 169.648438 8.050781 170.992188 7.601562 171.441406 8.050781 C 171.890625 8.503906 172.039062 14.515625 171.742188 21.433594 L 171.292969 34.0625 L 166.058594 23.539062 C 161.867188 15.117188 159.625 12.410156 155.136719 10.15625 C 150.050781 7.75 148.851562 7.601562 143.914062 9.554688 C 133.742188 13.3125 131.199219 25.34375 138.679688 33.613281 C 140.175781 35.265625 146.757812 39.324219 153.339844 42.632812 C 173.089844 52.558594 179.523438 61.578125 177.425781 76.164062 C 175.183594 90.898438 164.859375 98.570312 147.355469 98.570312 C 130.453125 98.417969 126.261719 95.710938 104.121094 71.050781 C 93.5 59.476562 84.074219 49.851562 83.027344 49.851562 C 78.539062 49.851562 73.453125 58.875 71.660156 70.152344 C 69.117188 84.734375 65.375 91.503906 56.996094 96.011719 C 49.21875 100.070312 41.140625 100.371094 29.921875 97.066406 C 25.582031 95.710938 20.496094 94.960938 18.550781 95.410156 C 15.257812 96.011719 15.109375 95.5625 14.660156 83.382812 C 14.363281 76.617188 14.511719 70.902344 14.960938 70.902344 C 15.410156 70.902344 17.953125 75.414062 20.792969 80.828125 C 27.078125 93.003906 32.464844 96.914062 41.589844 96.011719 C 51.910156 94.960938 58.195312 86.539062 56.25 76.164062 C 54.753906 68.796875 49.21875 62.933594 39.34375 58.121094 C 21.242188 49.550781 15.558594 42.332031 16.90625 30.003906 C 19.148438 11.511719 35.304688 1.585938 52.0625 8.503906 Z M 159.027344 75.113281 C 164.261719 79.773438 160.074219 88.945312 152.59375 88.945312 C 144.964844 88.945312 140.925781 80.976562 145.5625 75.113281 C 149.003906 70.601562 153.789062 70.601562 159.027344 75.113281 Z M 83.777344 97.214844 C 92.152344 101.574219 99.335938 100.070312 111.003906 91.652344 C 113.246094 90.148438 114.144531 90.148438 116.242188 92.402344 C 118.484375 94.660156 118.484375 95.261719 116.6875 97.214844 C 114.445312 99.320312 99.035156 103.980469 93.949219 103.980469 C 92.003906 103.980469 91.257812 105.183594 91.257812 107.890625 C 91.257812 109.996094 90.507812 113.003906 89.761719 114.65625 C 88.5625 116.761719 88.714844 118.417969 90.507812 120.824219 C 93.5 125.183594 93.5 132.550781 90.507812 132.550781 C 89.011719 132.550781 88.265625 131.046875 88.265625 128.339844 C 88.265625 123.378906 85.871094 120.523438 81.53125 120.523438 C 78.839844 120.523438 78.539062 121.273438 78.988281 126.535156 C 79.4375 131.347656 79.140625 132.550781 77.195312 132.550781 C 75.25 132.550781 74.800781 130.445312 74.800781 119.015625 C 74.800781 111.046875 75.398438 105.484375 76.296875 105.484375 C 77.195312 105.484375 77.792969 107.589844 77.792969 109.996094 C 77.792969 118.566406 85.871094 117.214844 87.066406 108.492188 C 87.664062 104.28125 87.367188 103.980469 82.730469 103.980469 C 78.089844 103.980469 65.824219 99.921875 65.824219 98.417969 C 65.824219 97.964844 67.320312 94.960938 69.117188 91.800781 L 72.40625 85.789062 L 75.996094 90.449219 C 77.941406 93.003906 81.53125 96.011719 83.777344 97.214844 Z M 175.035156 106.386719 C 176.679688 107.890625 177.277344 111.800781 177.277344 119.769531 C 177.277344 133.902344 174.585938 134.804688 173.539062 120.972656 C 172.640625 109.542969 171.59375 106.988281 167.554688 106.988281 C 163.363281 106.988281 162.316406 109.695312 162.316406 120.824219 C 162.316406 126.386719 161.71875 131.199219 160.820312 131.347656 C 159.175781 131.796875 157.976562 114.207031 159.324219 108.792969 C 160.820312 102.628906 169.648438 101.273438 175.035156 106.386719 Z M 202.109375 103.980469 C 205.851562 106.085938 206 110.746094 202.410156 109.246094 C 196.726562 106.6875 190.441406 106.6875 188.046875 109.246094 C 178.773438 118.417969 189.84375 133.300781 200.164062 125.484375 C 206 121.121094 205.851562 119.320312 199.417969 118.714844 C 191.339844 118.117188 193.132812 115.257812 201.664062 115.257812 C 207.796875 115.257812 208.695312 115.710938 209.140625 118.714844 C 209.441406 120.824219 208.09375 123.679688 205.101562 126.535156 C 201.664062 130.144531 199.417969 131.046875 194.480469 131.046875 C 185.804688 131.046875 181.015625 126.085938 181.015625 116.914062 C 181.015625 111.351562 181.765625 109.695312 185.65625 106.386719 C 190.441406 102.328125 197.023438 101.273438 202.109375 103.980469 Z M 69.414062 104.882812 C 73.304688 106.386719 72.109375 108.492188 67.320312 108.492188 C 61.1875 108.492188 56.847656 113.152344 56.847656 119.621094 C 56.847656 125.632812 61.039062 129.542969 67.621094 129.542969 C 72.554688 129.542969 73.15625 131.949219 68.667969 133.300781 C 61.636719 135.558594 52.359375 127.4375 52.359375 119.167969 C 52.359375 113.90625 55.652344 108.792969 60.4375 106.386719 C 65.675781 103.679688 66.273438 103.679688 69.414062 104.882812 Z M 111.003906 106.539062 C 114.144531 109.996094 115.34375 131.199219 112.648438 132.097656 C 111.304688 132.550781 110.703125 131.046875 110.703125 127.4375 C 110.703125 122.324219 110.40625 122.023438 105.617188 122.023438 C 100.832031 122.023438 100.382812 122.476562 99.933594 126.835938 C 99.632812 129.390625 98.585938 131.796875 97.691406 132.25 C 96.195312 132.699219 95.746094 129.691406 95.746094 120.671875 C 95.746094 109.996094 96.042969 108.339844 99.035156 106.386719 C 103.375 103.230469 108.160156 103.378906 111.003906 106.539062 Z M 139.277344 105.484375 C 140.773438 106.386719 142.121094 108.042969 142.121094 109.246094 C 142.121094 112.101562 141.371094 112.101562 137.035156 109.246094 C 132.695312 106.238281 126.414062 107.589844 123.421875 111.949219 C 116.089844 122.476562 130.453125 133.753906 139.578125 124.730469 L 142.867188 121.273438 L 137.183594 120.523438 C 128.804688 119.46875 129.703125 116.761719 138.828125 116.3125 C 145.113281 116.011719 146.609375 116.3125 146.609375 118.265625 C 146.609375 122.023438 142.421875 129.242188 139.277344 131.046875 C 131.351562 135.257812 119.382812 129.542969 117.734375 120.972656 C 116.839844 115.859375 119.832031 107.890625 123.71875 105.636719 C 127.160156 103.679688 135.539062 103.53125 139.277344 105.484375 Z M 154.089844 118.417969 C 154.089844 129.242188 153.640625 132.699219 152.292969 132.25 C 150.945312 131.796875 150.199219 127.136719 149.898438 117.8125 C 149.601562 106.238281 149.898438 103.980469 151.84375 103.980469 C 153.640625 103.980469 154.089844 106.386719 154.089844 118.417969 Z M 24.234375 108.042969 C 30.816406 114.054688 25.730469 125.03125 16.15625 125.03125 C 12.417969 125.03125 11.96875 125.632812 11.96875 129.691406 C 11.96875 132.699219 11.371094 134.054688 10.171875 133.753906 C 8.828125 133.300781 8.078125 129.242188 7.777344 122.324219 C 7.332031 113.003906 7.777344 111.351562 10.621094 108.644531 C 14.660156 104.882812 20.496094 104.582031 24.234375 108.042969 Z M 46.976562 108.792969 C 49.964844 113.152344 50.414062 134.65625 47.574219 133.753906 C 46.527344 133.300781 45.476562 130.894531 45.179688 128.339844 C 44.730469 123.980469 44.28125 123.527344 39.496094 123.527344 C 34.707031 123.527344 34.410156 123.828125 34.410156 128.941406 C 34.410156 132.550781 33.808594 134.054688 32.613281 133.753906 C 29.621094 132.699219 29.171875 113.453125 32.164062 109.09375 C 35.304688 104.28125 43.683594 104.132812 46.976562 108.792969 Z M 46.976562 108.792969 "/>
<path style=" stroke:none;fill-rule:nonzero;fill:rgb(0%,0%,0%);fill-opacity:1;" d="M 85.871094 10.003906 C 81.234375 11.960938 79.289062 14.816406 79.289062 19.78125 C 79.289062 23.6875 91.257812 39.324219 94.398438 39.324219 C 98.886719 39.324219 103.972656 30.457031 103.972656 22.484375 C 103.972656 11.359375 95.746094 5.644531 85.871094 10.003906 Z M 85.871094 10.003906 "/>
<path style=" stroke:none;fill-rule:nonzero;fill:rgb(0%,0%,0%);fill-opacity:1;" d="M 100.234375 110.746094 C 97.242188 114.507812 99.035156 117.8125 104.421875 118.265625 C 110.105469 118.714844 111.753906 116.3125 109.210938 111.648438 C 107.414062 108.042969 102.925781 107.589844 100.234375 110.746094 Z M 100.234375 110.746094 "/>
<path style=" stroke:none;fill-rule:nonzero;fill:rgb(0%,0%,0%);fill-opacity:1;" d="M 13.015625 111.046875 C 12.417969 111.5 11.96875 113.90625 11.96875 116.3125 C 11.96875 119.917969 12.566406 120.523438 16.457031 120.523438 C 21.542969 120.523438 24.382812 116.761719 22.289062 112.703125 C 20.945312 109.996094 14.960938 108.945312 13.015625 111.046875 Z M 13.015625 111.046875 "/>
<path style=" stroke:none;fill-rule:nonzero;fill:rgb(0%,0%,0%);fill-opacity:1;" d="M 36.953125 110.148438 C 35.605469 111.046875 34.410156 113.304688 34.410156 115.257812 C 34.410156 118.566406 35.15625 119.015625 39.644531 119.015625 C 44.28125 119.015625 44.878906 118.566406 44.878906 115.257812 C 44.878906 110.898438 40.691406 108.191406 36.953125 110.148438 Z M 36.953125 110.148438 "/>
</g>
</svg>
