<?xml version="1.0" standalone="no"?>
<!DOCTYPE svg PUBLIC "-//W3C//DTD SVG 20010904//EN"
 "http://www.w3.org/TR/2001/REC-SVG-20010904/DTD/svg10.dtd">
<svg version="1.0" xmlns="http://www.w3.org/2000/svg"
 width="150.000000pt" height="93.000000pt" viewBox="0 0 150.000000 93.000000"
 preserveAspectRatio="xMidYMid meet">

<g transform="translate(0.000000,93.000000) scale(0.100000,-0.100000)"
fill="#000000" stroke="none">
<path d="M0 465 l0 -465 750 0 750 0 0 465 0 465 -750 0 -750 0 0 -465z m348
410 c20 -9 47 -14 59 -10 20 5 22 1 25 -70 2 -41 0 -75 -3 -75 -3 0 -16 23
-29 51 -43 90 -102 119 -170 84 -20 -10 -33 -28 -41 -54 -18 -62 7 -95 114
-151 48 -26 97 -56 110 -68 13 -12 27 -22 31 -22 6 0 61 37 90 61 4 4 -6 28
-24 54 -43 63 -50 120 -19 159 59 74 216 75 265 1 37 -57 13 -110 -73 -161
l-44 -25 80 -87 c174 -190 239 -242 301 -242 27 0 77 49 86 84 11 47 -35 98
-137 151 -109 57 -143 98 -142 176 2 123 114 190 243 144 33 -11 46 -12 57 -4
7 7 16 10 19 7 3 -3 4 -43 2 -89 l-3 -84 -35 70 c-28 56 -43 74 -73 89 -34 16
-42 17 -75 4 -68 -25 -85 -105 -35 -160 10 -11 54 -38 98 -60 132 -66 175
-126 161 -223 -15 -98 -84 -149 -201 -149 -113 1 -141 19 -289 183 -71 77
-134 141 -141 141 -30 0 -64 -60 -76 -135 -17 -97 -42 -142 -98 -172 -52 -27
-106 -29 -181 -7 -29 9 -63 14 -76 11 -22 -4 -23 -1 -26 80 -2 45 -1 83 2 83
3 0 20 -30 39 -66 42 -81 78 -107 139 -101 69 7 111 63 98 132 -10 49 -47 88
-113 120 -121 57 -159 105 -150 187 15 123 123 189 235 143z m715 -443 c35
-31 7 -92 -43 -92 -51 0 -78 53 -47 92 23 30 55 30 90 0z m-503 -147 c56 -29
104 -19 182 37 15 10 21 10 35 -5 15 -15 15 -19 3 -32 -15 -14 -118 -45 -152
-45 -13 0 -18 -8 -18 -26 0 -14 -5 -34 -10 -45 -8 -14 -7 -25 5 -41 20 -29 20
-78 0 -78 -10 0 -15 10 -15 28 0 33 -16 52 -45 52 -18 0 -20 -5 -17 -40 3 -32
1 -40 -12 -40 -13 0 -16 14 -16 90 0 53 4 90 10 90 6 0 10 -14 10 -30 0 -57
54 -48 62 10 4 28 2 30 -29 30 -31 0 -113 27 -113 37 0 3 10 23 22 44 l22 40
24 -31 c13 -17 37 -37 52 -45z m610 -61 c11 -10 15 -36 15 -89 0 -94 -18 -100
-25 -8 -6 76 -13 93 -40 93 -28 0 -35 -18 -35 -92 0 -37 -4 -69 -10 -70 -11
-3 -19 114 -10 150 10 41 69 50 105 16z m181 16 c25 -14 26 -45 2 -35 -38 17
-80 17 -96 0 -62 -61 12 -160 81 -108 39 29 38 41 -5 45 -54 4 -42 23 15 23
41 0 47 -3 50 -23 2 -14 -7 -33 -27 -52 -23 -24 -38 -30 -71 -30 -58 0 -90 33
-90 94 0 37 5 48 31 70 32 27 76 34 110 16z m-887 -6 c26 -10 18 -24 -14 -24
-41 0 -70 -31 -70 -74 0 -40 28 -66 72 -66 33 0 37 -16 7 -25 -47 -15 -109 39
-109 94 0 35 22 69 54 85 35 18 39 18 60 10z m278 -11 c21 -23 29 -164 11
-170 -9 -3 -13 7 -13 31 0 34 -2 36 -34 36 -32 0 -35 -3 -38 -32 -2 -17 -9
-33 -15 -36 -10 -3 -13 17 -13 77 0 71 2 82 22 95 29 21 61 20 80 -1z m189 7
c10 -6 19 -17 19 -25 0 -19 -5 -19 -34 0 -29 20 -71 11 -91 -18 -49 -70 47
-145 108 -85 l22 23 -38 5 c-56 7 -50 25 11 28 42 2 52 0 52 -13 0 -25 -28
-73 -49 -85 -53 -28 -133 10 -144 67 -6 34 14 87 40 102 23 13 79 14 104 1z
m99 -86 c0 -72 -3 -95 -12 -92 -9 3 -14 34 -16 96 -2 77 0 92 13 92 12 0 15
-16 15 -96z m-868 69 c44 -40 10 -113 -54 -113 -25 0 -28 -4 -28 -31 0 -20 -4
-29 -12 -27 -9 3 -14 30 -16 76 -3 62 0 73 19 91 27 25 66 27 91 4z m152 -5
c20 -29 23 -172 4 -166 -7 3 -14 19 -16 36 -3 29 -6 32 -38 32 -32 0 -34 -2
-34 -36 0 -24 -4 -34 -12 -32 -20 7 -23 135 -3 164 21 32 77 33 99 2z"/>
<path d="M574 865 c-31 -13 -44 -32 -44 -65 0 -26 80 -130 101 -130 30 0 64
59 64 112 0 74 -55 112 -121 83z"/>
<path d="M670 195 c-20 -25 -8 -47 28 -50 38 -3 49 13 32 44 -12 24 -42 27
-60 6z"/>
<path d="M87 193 c-4 -3 -7 -19 -7 -35 0 -24 4 -28 30 -28 34 0 53 25 39 52
-9 18 -49 25 -62 11z"/>
<path d="M247 199 c-9 -6 -17 -21 -17 -34 0 -22 5 -25 35 -25 31 0 35 3 35 25
0 29 -28 47 -53 34z"/>
</g>
</svg>
